<?xml version="1.0"?>
<svg xmlns="http://www.w3.org/2000/svg" xmlns:xlink="http://www.w3.org/1999/xlink" version="1.1" id="Capa_1" x="0px" y="0px" viewBox="0 0 512 512" style="enable-background:new 0 0 512 512;" xml:space="preserve" width="512px" height="512px"><g><g>
	<g>
		<path d="M358.4,281.6c-18.825,0-34.133,15.309-34.133,34.133s15.309,34.133,34.133,34.133s34.133-15.309,34.133-34.133    S377.225,281.6,358.4,281.6z M358.4,332.8c-9.412,0-17.067-7.654-17.067-17.067s7.654-17.067,17.067-17.067    s17.067,7.654,17.067,17.067S367.812,332.8,358.4,332.8z" data-original="#000000" class="active-path" data-old_color="#000000" fill="#FFFFFF"/>
	</g>
</g><g>
	<g>
		<path d="M384,179.2c-4.71,0-8.533,3.814-8.533,8.533v128c0,4.719,3.823,8.533,8.533,8.533s8.533-3.814,8.533-8.533v-128    C392.533,183.014,388.71,179.2,384,179.2z" data-original="#000000" class="active-path" data-old_color="#000000" fill="#FFFFFF"/>
	</g>
</g><g>
	<g>
		<path d="M440.192,163.746c-2.227-1.604-5.086-2.057-7.689-1.169l-51.2,17.067c-3.49,1.161-5.837,4.412-5.837,8.09V230.4    c0,2.739,1.323,5.316,3.541,6.929c1.476,1.058,3.226,1.604,4.992,1.604c0.905,0,1.818-0.145,2.697-0.444l51.2-17.067    c3.49-1.161,5.837-4.412,5.837-8.09v-42.667C443.733,167.928,442.411,165.35,440.192,163.746z M426.667,207.189l-34.133,11.375    v-24.678l34.133-11.375V207.189z" data-original="#000000" class="active-path" data-old_color="#000000" fill="#FFFFFF"/>
	</g>
</g><g>
	<g>
		<path d="M503.467,170.667c4.71,0,8.533-3.814,8.533-8.533V128c0-4.719-3.823-8.533-8.533-8.533H8.533    C3.823,119.467,0,123.281,0,128v34.133c0,4.719,3.823,8.533,8.533,8.533c14.114,0,25.6,11.486,25.6,25.6s-11.486,25.6-25.6,25.6    c-4.71,0-8.533,3.814-8.533,8.533v51.2c0,4.719,3.823,8.533,8.533,8.533c14.114,0,25.6,11.486,25.6,25.6s-11.486,25.6-25.6,25.6    c-4.71,0-8.533,3.814-8.533,8.533V384c0,4.719,3.823,8.533,8.533,8.533h494.933c4.71,0,8.533-3.814,8.533-8.533v-34.133    c0-4.719-3.823-8.533-8.533-8.533c-14.114,0-25.6-11.486-25.6-25.6s11.486-25.6,25.6-25.6c4.71,0,8.533-3.814,8.533-8.533v-51.2    c0-4.719-3.823-8.533-8.533-8.533c-14.114,0-25.6-11.486-25.6-25.6S489.353,170.667,503.467,170.667z M494.933,238.08v35.848    c-19.447,3.959-34.133,21.197-34.133,41.805s14.686,37.837,34.133,41.805v17.929H17.067v-17.929    c19.448-3.959,34.133-21.197,34.133-41.805s-14.686-37.845-34.133-41.813v-35.848c19.448-3.959,34.133-21.197,34.133-41.805    s-14.686-37.845-34.133-41.805v-17.929h477.867v17.937c-19.447,3.959-34.133,21.197-34.133,41.805    C460.8,216.883,475.486,234.112,494.933,238.08z" data-original="#000000" class="active-path" data-old_color="#000000" fill="#FFFFFF"/>
	</g>
</g><g>
	<g>
		<path d="M298.667,119.467c-4.71,0-8.533,3.814-8.533,8.533v17.067c0,4.719,3.823,8.533,8.533,8.533s8.533-3.814,8.533-8.533V128    C307.2,123.281,303.377,119.467,298.667,119.467z" data-original="#000000" class="active-path" data-old_color="#000000" fill="#FFFFFF"/>
	</g>
</g><g>
	<g>
		<g>
			<path d="M298.667,273.067c-4.71,0-8.533,3.814-8.533,8.533v34.133c0,4.719,3.823,8.533,8.533,8.533s8.533-3.814,8.533-8.533     V281.6C307.2,276.881,303.377,273.067,298.667,273.067z" data-original="#000000" class="active-path" data-old_color="#000000" fill="#FFFFFF"/>
			<path d="M298.667,187.733c-4.71,0-8.533,3.814-8.533,8.533V230.4c0,4.719,3.823,8.533,8.533,8.533s8.533-3.814,8.533-8.533     v-34.133C307.2,191.548,303.377,187.733,298.667,187.733z" data-original="#000000" class="active-path" data-old_color="#000000" fill="#FFFFFF"/>
		</g>
	</g>
</g><g>
	<g>
		<path d="M298.667,358.4c-4.71,0-8.533,3.814-8.533,8.533V384c0,4.719,3.823,8.533,8.533,8.533s8.533-3.814,8.533-8.533v-17.067    C307.2,362.214,303.377,358.4,298.667,358.4z" data-original="#000000" class="active-path" data-old_color="#000000" fill="#FFFFFF"/>
	</g>
</g><g>
	<g>
		<path d="M187.733,256h-102.4c-4.71,0-8.533,3.814-8.533,8.533s3.823,8.533,8.533,8.533h102.4c4.71,0,8.533-3.814,8.533-8.533    S192.444,256,187.733,256z" data-original="#000000" class="active-path" data-old_color="#000000" fill="#FFFFFF"/>
	</g>
</g><g>
	<g>
		<path d="M256,221.867H153.6c-4.71,0-8.533,3.814-8.533,8.533s3.823,8.533,8.533,8.533H256c4.71,0,8.533-3.814,8.533-8.533    S260.71,221.867,256,221.867z" data-original="#000000" class="active-path" data-old_color="#000000" fill="#FFFFFF"/>
	</g>
</g><g>
	<g>
		<path d="M256,256h-34.133c-4.71,0-8.533,3.814-8.533,8.533s3.823,8.533,8.533,8.533H256c4.71,0,8.533-3.814,8.533-8.533    S260.71,256,256,256z" data-original="#000000" class="active-path" data-old_color="#000000" fill="#FFFFFF"/>
	</g>
</g><g>
	<g>
		<path d="M187.733,187.733h-102.4c-4.71,0-8.533,3.814-8.533,8.533s3.823,8.533,8.533,8.533h102.4c4.71,0,8.533-3.814,8.533-8.533    S192.444,187.733,187.733,187.733z" data-original="#000000" class="active-path" data-old_color="#000000" fill="#FFFFFF"/>
	</g>
</g><g>
	<g>
		<path d="M256,187.733h-34.133c-4.71,0-8.533,3.814-8.533,8.533s3.823,8.533,8.533,8.533H256c4.71,0,8.533-3.814,8.533-8.533    S260.71,187.733,256,187.733z" data-original="#000000" class="active-path" data-old_color="#000000" fill="#FFFFFF"/>
	</g>
</g><g>
	<g>
		<path d="M119.467,221.867H85.333c-4.71,0-8.533,3.814-8.533,8.533s3.823,8.533,8.533,8.533h34.133c4.71,0,8.533-3.814,8.533-8.533    S124.177,221.867,119.467,221.867z" data-original="#000000" class="active-path" data-old_color="#000000" fill="#FFFFFF"/>
	</g>
</g><g>
	<g>
		<path d="M256,153.6H153.6c-4.71,0-8.533,3.814-8.533,8.533s3.823,8.533,8.533,8.533H256c4.71,0,8.533-3.814,8.533-8.533    S260.71,153.6,256,153.6z" data-original="#000000" class="active-path" data-old_color="#000000" fill="#FFFFFF"/>
	</g>
</g><g>
	<g>
		<path d="M119.467,153.6H85.333c-4.71,0-8.533,3.814-8.533,8.533s3.823,8.533,8.533,8.533h34.133c4.71,0,8.533-3.814,8.533-8.533    S124.177,153.6,119.467,153.6z" data-original="#000000" class="active-path" data-old_color="#000000" fill="#FFFFFF"/>
	</g>
</g><g>
	<g>
		<path d="M153.6,290.133H85.333c-4.71,0-8.533,3.814-8.533,8.533v51.2c0,4.719,3.823,8.533,8.533,8.533H153.6    c4.71,0,8.533-3.814,8.533-8.533v-51.2C162.133,293.948,158.31,290.133,153.6,290.133z M145.067,341.333h-51.2V307.2h51.2V341.333    z" data-original="#000000" class="active-path" data-old_color="#000000" fill="#FFFFFF"/>
	</g>
</g><g>
	<g>
		<path d="M256,290.133h-68.267c-4.71,0-8.533,3.814-8.533,8.533v51.2c0,4.719,3.823,8.533,8.533,8.533H256    c4.71,0,8.533-3.814,8.533-8.533v-51.2C264.533,293.948,260.71,290.133,256,290.133z M247.467,341.333h-51.2V307.2h51.2V341.333z" data-original="#000000" class="active-path" data-old_color="#000000" fill="#FFFFFF"/>
	</g>
</g></g> </svg>
